Rokkitt-Bold.ufo
<glyph name="exclam" format="1">
  <advance width="521"/>
  <unicode hex="0021"/>
  <outline>
    <contour>
      <point x="213" y="406" type="line"/>
      <point x="321" y="406" type="line"/>
      <point x="372" y="902" type="line"/>
      <point x="372" y="1211" type="line"/>
      <point x="156" y="1211" type="line"/>
      <point x="156" y="902" type="line"/>
    </contour>
    <contour>
      <point x="134" y="0" type="line"/>
      <point x="392" y="0" type="line"/>
      <point x="392" y="247" type="line"/>
      <point x="134" y="247" type="line"/>
    </contour>
  </outline>
</glyph>
<glyph name="quotedbl" format="1">
  <advance width="840"/>
  <unicode hex="0022"/>
  <outline>
    <contour>
      <point x="189" y="732" type="line"/>
      <point x="317" y="732" type="line"/>
      <point x="362" y="1214" type="line"/>
      <point x="138" y="1214" type="line"/>
    </contour>
    <contour>
      <point x="527" y="732" type="line"/>
      <point x="654" y="732" type="line"/>
      <point x="700" y="1214" type="line"/>
      <point x="476" y="1214" type="line"/>
    </contour>
  </outline>
</glyph>
<glyph name="ampersand" format="1">
  <advance width="1401"/>
  <unicode hex="0026"/>
  <outline>
    <contour>
      <point x="531" y="-19" type="curve" smooth="yes"/>
      <point x="672" y="-19"/>
      <point x="792" y="28"/>
      <point x="902" y="122" type="curve"/>
      <point x="995" y="0" type="line"/>
      <point x="1317" y="0" type="line"/>
      <point x="1317" y="157" type="line"/>
      <point x="1125" y="157" type="line"/>
      <point x="1036" y="265" type="line"/>
      <point x="1095" y="334"/>
      <point x="1141" y="415"/>
      <point x="1176" y="518" type="curve"/>
      <point x="1316" y="520" type="line"/>
      <point x="1316" y="674" type="line"/>
      <point x="1040" y="674" type="line"/>
      <point x="1017" y="578"/>
      <point x="983" y="477"/>
      <point x="923" y="402" type="curve"/>
      <point x="697" y="659" type="line"/>
      <point x="874" y="739"/>
      <point x="946" y="839"/>
      <point x="946" y="969" type="curve" smooth="yes"/>
      <point x="946" y="1109"/>
      <point x="818" y="1224"/>
      <point x="637" y="1224" type="curve" smooth="yes"/>
      <point x="443" y="1224"/>
      <point x="307" y="1107"/>
      <point x="307" y="956" type="curve" smooth="yes"/>
      <point x="307" y="866"/>
      <point x="347" y="790"/>
      <point x="415" y="704" type="curve"/>
      <point x="218" y="626"/>
      <point x="98" y="516"/>
      <point x="98" y="352" type="curve" smooth="yes"/>
      <point x="98" y="144"/>
      <point x="276" y="-19"/>
    </contour>
    <contour>
      <point x="566" y="153" type="curve" smooth="yes"/>
      <point x="420" y="153"/>
      <point x="320" y="258"/>
      <point x="320" y="363" type="curve" smooth="yes"/>
      <point x="320" y="460"/>
      <point x="387" y="532"/>
      <point x="515" y="584" type="curve"/>
      <point x="795" y="253" type="line"/>
      <point x="725" y="183"/>
      <point x="650" y="153"/>
    </contour>
    <contour>
      <point x="601" y="783" type="curve"/>
      <point x="539" y="862"/>
      <point x="506" y="914"/>
      <point x="506" y="965" type="curve" smooth="yes"/>
      <point x="506" y="1037"/>
      <point x="559" y="1080"/>
      <point x="636" y="1080" type="curve" smooth="yes"/>
      <point x="709" y="1080"/>
      <point x="763" y="1034"/>
      <point x="763" y="960" type="curve" smooth="yes"/>
      <point x="763" y="887"/>
      <point x="712" y="836"/>
    </contour>
  </outline>
</glyph>
<glyph name="parenleft" format="1">
  <advance width="628"/>
  <unicode hex="0028"/>
  <outline>
    <contour>
      <point x="537" y="-128" type="curve"/>
      <point x="536" y="12" type="line"/>
      <point x="418" y="91"/>
      <point x="357" y="307"/>
      <point x="357" y="524" type="curve" smooth="yes"/>
      <point x="357" y="740"/>
      <point x="418" y="957"/>
      <point x="536" y="1036" type="curve"/>
      <point x="537" y="1173" type="line"/>
      <point x="245" y="1046"/>
      <point x="97" y="782"/>
      <point x="97" y="520" type="curve" smooth="yes"/>
      <point x="97" y="260"/>
      <point x="243" y="-1"/>
    </contour>
  </outline>
</glyph>
<glyph name="one" format="1">
  <advance width="797"/>
  <unicode hex="0031"/>
  <outline>
    <contour>
      <point x="140" y="0" type="line"/>
      <point x="713" y="0" type="line"/>
      <point x="713" y="152" type="line"/>
      <point x="543" y="152" type="line"/>
      <point x="543" y="1152" type="line"/>
      <point x="130" y="1100" type="line"/>
      <point x="130" y="949" type="line"/>
      <point x="320" y="972" type="line"/>
      <point x="320" y="152" type="line"/>
      <point x="140" y="152" type="line"/>
    </contour>
  </outline>
</glyph>
<glyph name="four" format="1">
  <advance width="1008"/>
  <unicode hex="0034"/>
  <outline>
    <contour>
      <point x="366" y="0" type="line"/>
      <point x="875" y="0" type="line"/>
      <point x="875" y="152" type="line"/>
      <point x="734" y="152" type="line"/>
      <point x="734" y="342" type="line"/>
      <point x="908" y="342" type="line"/>
      <point x="908" y="488" type="line"/>
      <point x="734" y="488" type="line"/>
      <point x="734" y="1152" type="line"/>
      <point x="528" y="1152" type="line"/>
      <point x="35" y="505" type="line"/>
      <point x="56" y="342" type="line"/>
      <point x="529" y="342" type="line"/>
      <point x="529" y="152" type="line"/>
      <point x="366" y="152" type="line"/>
    </contour>
    <contour>
      <point x="224" y="488" type="line"/>
      <point x="529" y="914" type="line"/>
      <point x="529" y="488" type="line"/>
    </contour>
  </outline>
</glyph>
<glyph name="eight" format="1">
  <advance width="1124"/>
  <unicode hex="0038"/>
  <outline>
    <contour>
      <point x="564" y="-22" type="curve" smooth="yes"/>
      <point x="845" y="-22"/>
      <point x="1008" y="124"/>
      <point x="1008" y="314" type="curve" smooth="yes"/>
      <point x="1008" y="449"/>
      <point x="934" y="554"/>
      <point x="786" y="601" type="curve"/>
      <point x="916" y="660"/>
      <point x="970" y="751"/>
      <point x="970" y="866" type="curve" smooth="yes"/>
      <point x="970" y="1050"/>
      <point x="810" y="1174"/>
      <point x="561" y="1174" type="curve" smooth="yes"/>
      <point x="312" y="1174"/>
      <point x="152" y="1047"/>
      <point x="152" y="865" type="curve" smooth="yes"/>
      <point x="152" y="749"/>
      <point x="209" y="656"/>
      <point x="338" y="598" type="curve"/>
      <point x="189" y="552"/>
      <point x="115" y="449"/>
      <point x="115" y="314" type="curve" smooth="yes"/>
      <point x="115" y="127"/>
      <point x="271" y="-22"/>
    </contour>
    <contour>
      <point x="564" y="130" type="curve" smooth="yes"/>
      <point x="435" y="130"/>
      <point x="355" y="207"/>
      <point x="355" y="321" type="curve" smooth="yes"/>
      <point x="355" y="441"/>
      <point x="448" y="531"/>
      <point x="471" y="538" type="curve"/>
      <point x="645" y="497"/>
      <point x="769" y="456"/>
      <point x="769" y="319" type="curve" smooth="yes"/>
      <point x="769" y="207"/>
      <point x="689" y="130"/>
    </contour>
    <contour>
      <point x="636" y="654" type="curve"/>
      <point x="495" y="683"/>
      <point x="380" y="734"/>
      <point x="380" y="850" type="curve" smooth="yes"/>
      <point x="380" y="956"/>
      <point x="446" y="1023"/>
      <point x="561" y="1023" type="curve" smooth="yes"/>
      <point x="682" y="1023"/>
      <point x="745" y="952"/>
      <point x="745" y="850" type="curve" smooth="yes"/>
      <point x="745" y="745"/>
      <point x="656" y="660"/>
    </contour>
  </outline>
</glyph>
<glyph name="semicolon" format="1">
  <advance width="566"/>
  <unicode hex="003B"/>
  <outline>
    <contour>
      <point x="157" y="-207" type="line"/>
      <point x="372" y="-205"/>
      <point x="430" y="-117"/>
      <point x="430" y="77" type="curve" smooth="yes"/>
      <point x="430" y="92"/>
      <point x="429" y="316"/>
      <point x="428" y="327" type="curve"/>
      <point x="159" y="326" type="line"/>
      <point x="159" y="67" type="line"/>
      <point x="298" y="67" type="line"/>
      <point x="298" y="-44"/>
      <point x="265" y="-94"/>
      <point x="157" y="-103" type="curve"/>
    </contour>
    <contour>
      <point x="156" y="626" type="line"/>
      <point x="422" y="626" type="line"/>
      <point x="422" y="887" type="line"/>
      <point x="156" y="887" type="line"/>
    </contour>
  </outline>
</glyph>
<glyph name="C" format="1">
  <advance width="1363"/>
  <unicode hex="0043"/>
  <outline>
    <contour>
      <point x="718" y="1152" type="move" name="top"/>
    </contour>
    <contour>
      <point x="709" y="-22" type="curve" smooth="yes"/>
      <point x="972" y="-20"/>
      <point x="1189" y="80"/>
      <point x="1271" y="354" type="curve"/>
      <point x="1088" y="430" type="line"/>
      <point x="1040" y="230"/>
      <point x="890" y="152"/>
      <point x="724" y="152" type="curve" smooth="yes"/>
      <point x="481" y="152"/>
      <point x="335" y="334"/>
      <point x="335" y="579" type="curve" smooth="yes"/>
      <point x="335" y="826"/>
      <point x="491" y="1000"/>
      <point x="724" y="1000" type="curve" smooth="yes"/>
      <point x="872" y="1000"/>
      <point x="998" y="940"/>
      <point x="1072" y="778" type="curve"/>
      <point x="1237" y="778" type="line"/>
      <point x="1237" y="1155" type="line"/>
      <point x="1068" y="1155" type="line"/>
      <point x="1068" y="1034" type="line"/>
      <point x="992" y="1109"/>
      <point x="874" y="1174"/>
      <point x="710" y="1174" type="curve" smooth="yes"/>
      <point x="334" y="1174"/>
      <point x="89" y="931"/>
      <point x="89" y="575" type="curve" smooth="yes"/>
      <point x="89" y="243"/>
      <point x="311" y="-20"/>
    </contour>
  </outline>
</glyph>
<glyph name="E" format="1">
  <advance width="1195"/>
  <unicode hex="0045"/>
  <outline>
    <contour>
      <point x="627" y="1152" type="move" name="top"/>
    </contour>
    <contour>
      <point x="934" y="798" type="line"/>
      <point x="1115" y="798" type="line"/>
      <point x="1115" y="1152" type="line"/>
      <point x="56" y="1152" type="line"/>
      <point x="56" y="1001" type="line"/>
      <point x="213" y="1001" type="line"/>
      <point x="213" y="151" type="line"/>
      <point x="56" y="151" type="line"/>
      <point x="56" y="0" type="line"/>
      <point x="1118" y="0" type="line"/>
      <point x="1118" y="367" type="line"/>
      <point x="936" y="367" type="line"/>
      <point x="936" y="152" type="line"/>
      <point x="457" y="152" type="line"/>
      <point x="457" y="523" type="line"/>
      <point x="760" y="523" type="line"/>
      <point x="760" y="411" type="line"/>
      <point x="862" y="411" type="line"/>
      <point x="862" y="797" type="line"/>
      <point x="759" y="797" type="line"/>
      <point x="759" y="681" type="line"/>
      <point x="457" y="681" type="line"/>
      <point x="457" y="1000.2" type="line"/>
      <point x="934" y="1001" type="line"/>
    </contour>
  </outline>
</glyph>
<glyph name="H" format="1">
  <advance width="1433"/>
  <unicode hex="0048"/>
  <outline>
    <contour>
      <point x="725" y="1152" type="move" name="top"/>
    </contour>
    <contour>
      <point x="56" y="0" type="line"/>
      <point x="614" y="0" type="line"/>
      <point x="614" y="151" type="line"/>
      <point x="457" y="151" type="line"/>
      <point x="457" y="515" type="line"/>
      <point x="976" y="515" type="line"/>
      <point x="976" y="151" type="line"/>
      <point x="819" y="151" type="line"/>
      <point x="819" y="0" type="line"/>
      <point x="1377" y="0" type="line"/>
      <point x="1377" y="151" type="line"/>
      <point x="1220" y="151" type="line"/>
      <point x="1220" y="1001" type="line"/>
      <point x="1377" y="1001" type="line"/>
      <point x="1377" y="1152" type="line"/>
      <point x="819" y="1152" type="line"/>
      <point x="819" y="1001" type="line"/>
      <point x="976" y="1001" type="line"/>
      <point x="976" y="675" type="line"/>
      <point x="457" y="675" type="line"/>
      <point x="457" y="1001" type="line"/>
      <point x="614" y="1001" type="line"/>
      <point x="614" y="1152" type="line"/>
      <point x="56" y="1152" type="line"/>
      <point x="56" y="1001" type="line"/>
      <point x="213" y="1001" type="line"/>
      <point x="213" y="151" type="line"/>
      <point x="56" y="151" type="line"/>
    </contour>
  </outline>
</glyph>
<glyph name="N" format="1">
  <advance width="1512"/>
  <unicode hex="004E"/>
  <outline>
    <contour>
      <point x="745" y="1152" type="move" name="top"/>
    </contour>
    <contour>
      <point x="56" y="0" type="line"/>
      <point x="577" y="0" type="line"/>
      <point x="577" y="152" type="line"/>
      <point x="407" y="152" type="line"/>
      <point x="407" y="919" type="line"/>
      <point x="1071" y="0" type="line"/>
      <point x="1292" y="0" type="line"/>
      <point x="1292" y="1001" type="line"/>
      <point x="1473" y="1001" type="line"/>
      <point x="1473" y="1152" type="line"/>
      <point x="946" y="1152" type="line"/>
      <point x="946" y="1001" type="line"/>
      <point x="1115" y="1001" type="line"/>
      <point x="1115" y="324" type="line"/>
      <point x="513" y="1152" type="line"/>
      <point x="56" y="1152" type="line"/>
      <point x="56" y="1001" type="line"/>
      <point x="231" y="1001" type="line"/>
      <point x="231" y="152" type="line"/>
      <point x="56" y="152" type="line"/>
    </contour>
  </outline>
</glyph>
<glyph name="O" format="1">
  <advance width="1466"/>
  <unicode hex="004F"/>
  <outline>
    <contour>
      <point x="729" y="1152" type="move" name="top"/>
    </contour>
    <contour>
      <point x="731" y="152" type="curve" smooth="yes"/>
      <point x="511" y="152"/>
      <point x="348" y="332"/>
      <point x="348" y="573" type="curve" smooth="yes"/>
      <point x="348" y="820.318"/>
      <point x="510.105" y="1001"/>
      <point x="730.178" y="1001" type="curve" smooth="yes"/>
      <point x="730.785" y="1001"/>
      <point x="731.392" y="1001"/>
      <point x="732" y="1001" type="curve" smooth="yes"/>
      <point x="732.61" y="1001"/>
      <point x="733.22" y="1001"/>
      <point x="733.83" y="1001" type="curve" smooth="yes"/>
      <point x="954.895" y="1001"/>
      <point x="1117" y="820.321"/>
      <point x="1117" y="574" type="curve" smooth="yes"/>
      <point x="1117" y="332"/>
      <point x="953" y="152"/>
    </contour>
    <contour>
      <point x="732" y="-22" type="curve" smooth="yes"/>
      <point x="732.736" y="-22.002"/>
      <point x="733.471" y="-22.003"/>
      <point x="734.206" y="-22.003" type="curve" smooth="yes"/>
      <point x="1105.08" y="-22.003"/>
      <point x="1378" y="229.68"/>
      <point x="1378" y="573" type="curve" smooth="yes"/>
      <point x="1378" y="919"/>
      <point x="1104" y="1174"/>
      <point x="731" y="1174" type="curve" smooth="yes"/>
      <point x="361" y="1174"/>
      <point x="89" y="920"/>
      <point x="89" y="574" type="curve" smooth="yes"/>
      <point x="89" y="229.682"/>
      <point x="360.921" y="-22.003"/>
      <point x="729.806" y="-22.003" type="curve" smooth="yes"/>
      <point x="730.537" y="-22.003"/>
      <point x="731.268" y="-22.002"/>
    </contour>
  </outline>
</glyph>
<glyph name="R" format="1">
  <advance width="1296"/>
  <unicode hex="0052"/>
  <outline>
    <contour>
      <point x="577" y="1152" type="move" name="top"/>
    </contour>
    <contour>
      <point x="917" y="0" type="line"/>
      <point x="1260" y="0" type="line"/>
      <point x="1260" y="152" type="line"/>
      <point x="1090" y="152" type="line"/>
      <point x="859" y="544" type="line"/>
      <point x="1028" y="586"/>
      <point x="1123" y="676"/>
      <point x="1123" y="850" type="curve" smooth="yes"/>
      <point x="1123" y="1083"/>
      <point x="941" y="1152"/>
      <point x="691" y="1152" type="curve" smooth="yes"/>
      <point x="56" y="1152" type="line"/>
      <point x="56" y="1001" type="line"/>
      <point x="213" y="1001" type="line"/>
      <point x="213" y="151" type="line"/>
      <point x="56" y="151" type="line"/>
      <point x="56" y="0" type="line"/>
      <point x="614" y="0" type="line"/>
      <point x="614" y="151" type="line"/>
      <point x="457" y="151" type="line"/>
      <point x="457" y="1001" type="line"/>
      <point x="685" y="1001" type="line" smooth="yes"/>
      <point x="814" y="1001"/>
      <point x="879" y="939"/>
      <point x="879" y="845" type="curve" smooth="yes"/>
      <point x="879" y="754"/>
      <point x="832" y="671"/>
      <point x="670" y="671" type="curve" smooth="yes"/>
      <point x="521" y="671" type="line"/>
      <point x="521" y="518" type="line"/>
      <point x="628" y="518" type="line"/>
    </contour>
  </outline>
</glyph>
<glyph name="W" format="1">
  <advance width="1884"/>
  <unicode hex="0057"/>
  <outline>
    <contour>
      <point x="973" y="1152" type="move" name="top"/>
    </contour>
    <contour>
      <point x="495" y="0" type="line"/>
      <point x="677" y="0" type="line"/>
      <point x="945" y="780" type="line"/>
      <point x="1218" y="0" type="line"/>
      <point x="1404" y="0" type="line"/>
      <point x="1700" y="1001" type="line"/>
      <point x="1844" y="1001" type="line"/>
      <point x="1844" y="1152" type="line"/>
      <point x="1372" y="1152" type="line"/>
      <point x="1372" y="1001" type="line"/>
      <point x="1518" y="1001" type="line"/>
      <point x="1327" y="312" type="line"/>
      <point x="1042" y="1147" type="line"/>
      <point x="896" y="1147" type="line"/>
      <point x="613" y="312" type="line"/>
      <point x="419" y="1001" type="line"/>
      <point x="560" y="1001" type="line"/>
      <point x="560" y="1152" type="line"/>
      <point x="41" y="1152" type="line"/>
      <point x="41" y="1001" type="line"/>
      <point x="186" y="1001" type="line"/>
    </contour>
  </outline>
</glyph>
<glyph name="b" format="1">
  <advance width="1102"/>
  <unicode hex="0062"/>
  <outline>
    <contour>
      <point x="685" y="804" type="move" name="top"/>
    </contour>
    <contour>
      <point x="416" y="604.123" type="line"/>
      <point x="477.543" y="645.253"/>
      <point x="539.662" y="665"/>
      <point x="598" y="665" type="curve" smooth="yes"/>
      <point x="732" y="665"/>
      <point x="827" y="565"/>
      <point x="827" y="402" type="curve" smooth="yes"/>
      <point x="827" y="221"/>
      <point x="717" y="133"/>
      <point x="587" y="133" type="curve" smooth="yes"/>
      <point x="532.314" y="133"/>
      <point x="472.994" y="149.219"/>
      <point x="416" y="184.538" type="curve"/>
    </contour>
    <contour>
      <point x="645" y="-21" type="curve" smooth="yes"/>
      <point x="851" y="-21"/>
      <point x="1056" y="134"/>
      <point x="1056" y="416" type="curve" smooth="yes"/>
      <point x="1056" y="680"/>
      <point x="880" y="825"/>
      <point x="672" y="825" type="curve" smooth="yes"/>
      <point x="585.703" y="825"/>
      <point x="496.762" y="797.679"/>
      <point x="416" y="745.084" type="curve"/>
      <point x="416" y="1174" type="line"/>
      <point x="47" y="1174" type="line"/>
      <point x="47" y="1023" type="line"/>
      <point x="197" y="1023" type="line"/>
      <point x="197" y="151" type="line"/>
      <point x="45" y="151" type="line"/>
      <point x="45" y="0" type="line"/>
      <point x="416" y="0" type="line"/>
      <point x="416" y="51.9946" type="line"/>
      <point x="484.746" y="2.76415"/>
      <point x="564.483" y="-21"/>
    </contour>
  </outline>
</glyph>
<glyph name="j" format="1">
  <advance width="569"/>
  <unicode hex="006A"/>
  <outline>
    <contour>
      <point x="1" y="-343" type="line"/>
      <point x="99" y="-343" type="line" smooth="yes"/>
      <point x="440" y="-343"/>
      <point x="451" y="-151"/>
      <point x="451" y="76" type="curve" smooth="yes"/>
      <point x="451" y="804" type="line"/>
      <point x="67" y="804" type="line"/>
      <point x="67" y="653" type="line"/>
      <point x="231" y="653" type="line"/>
      <point x="231" y="2" type="line" smooth="yes"/>
      <point x="231" y="-127"/>
      <point x="197" y="-172"/>
      <point x="92" y="-172" type="curve" smooth="yes"/>
      <point x="1" y="-172" type="line"/>
    </contour>
    <contour>
      <point x="305" y="966" type="curve" smooth="yes"/>
      <point x="390" y="966"/>
      <point x="453" y="1026"/>
      <point x="453" y="1106" type="curve" smooth="yes"/>
      <point x="453" y="1184"/>
      <point x="390" y="1244"/>
      <point x="305" y="1244" type="curve" smooth="yes"/>
      <point x="223" y="1244"/>
      <point x="160" y="1184"/>
      <point x="160" y="1106" type="curve" smooth="yes"/>
      <point x="160" y="1026"/>
      <point x="223" y="966"/>
    </contour>
  </outline>
</glyph>
<glyph name="l" format="1">
  <advance width="586"/>
  <unicode hex="006C"/>
  <outline>
    <contour>
      <point x="525" y="822" type="move" name="caron.alt"/>
    </contour>
    <contour>
      <point x="307" y="1152" type="move" name="top"/>
    </contour>
    <contour>
      <point x="54" y="0" type="line"/>
      <point x="542" y="0" type="line"/>
      <point x="542" y="151" type="line"/>
      <point x="420" y="151" type="line"/>
      <point x="420" y="1174" type="line"/>
      <point x="55" y="1174" type="line"/>
      <point x="55" y="1023" type="line"/>
      <point x="201" y="1023" type="line"/>
      <point x="201" y="151" type="line"/>
      <point x="54" y="151" type="line"/>
    </contour>
  </outline>
</glyph>
<glyph name="q" format="1">
  <advance width="1110"/>
  <unicode hex="0071"/>
  <outline>
    <contour>
      <point x="722" y="598.115" type="curve"/>
      <point x="722" y="198.084" type="line"/>
      <point x="653.36" y="158.734"/>
      <point x="580.123" y="138"/>
      <point x="515" y="138" type="curve" smooth="yes"/>
      <point x="386" y="138"/>
      <point x="281" y="221"/>
      <point x="281" y="392" type="curve" smooth="yes"/>
      <point x="281" y="579"/>
      <point x="377" y="666"/>
      <point x="507" y="666" type="curve" smooth="yes"/>
      <point x="574.011" y="666"/>
      <point x="649.306" y="642.125"/>
    </contour>
    <contour>
      <point x="555" y="-341" type="line"/>
      <point x="1085" y="-341" type="line"/>
      <point x="1085" y="-182" type="line"/>
      <point x="940" y="-182" type="line"/>
      <point x="940" y="653" type="line"/>
      <point x="1075" y="653" type="line"/>
      <point x="1075" y="804" type="line"/>
      <point x="723" y="804" type="line"/>
      <point x="722.278" y="730.337" type="line"/>
      <point x="640.713" y="789.894"/>
      <point x="543.604" y="825"/>
      <point x="448" y="825" type="curve" smooth="yes"/>
      <point x="236" y="825"/>
      <point x="52" y="680"/>
      <point x="52" y="400" type="curve" smooth="yes"/>
      <point x="52" y="130"/>
      <point x="246" y="-22"/>
      <point x="465" y="-22" type="curve" smooth="yes"/>
      <point x="557.083" y="-22"/>
      <point x="644.851" y="9.15777"/>
      <point x="722" y="65.4995" type="curve"/>
      <point x="722" y="-182" type="line"/>
      <point x="555" y="-182" type="line"/>
    </contour>
  </outline>
</glyph>
<glyph name="yen" format="1">
  <advance width="1327"/>
  <unicode hex="00A5"/>
  <outline>
    <component base="Y"/>
    <contour>
      <point x="289" y="297" type="line"/>
      <point x="1043" y="297" type="line"/>
      <point x="1043" y="414" type="line"/>
      <point x="753" y="414" type="line"/>
      <point x="753" y="503" type="line"/>
      <point x="1043" y="503" type="line"/>
      <point x="1043" y="622" type="line"/>
      <point x="289" y="622" type="line"/>
      <point x="289" y="503" type="line"/>
      <point x="593" y="503" type="line"/>
      <point x="593" y="414" type="line"/>
      <point x="289" y="414" type="line"/>
    </contour>
  </outline>
</glyph>
<glyph name="dieresis" format="1">
  <advance width="727"/>
  <unicode hex="00A8"/>
  <outline>
    <contour>
      <point x="362" y="804" type="move" name="_top"/>
    </contour>
    <contour>
      <point x="141" y="926" type="curve" smooth="yes"/>
      <point x="217" y="926"/>
      <point x="266" y="976"/>
      <point x="266" y="1046" type="curve" smooth="yes"/>
      <point x="266" y="1119"/>
      <point x="214" y="1165"/>
      <point x="141" y="1165" type="curve" smooth="yes"/>
      <point x="68" y="1165"/>
      <point x="16" y="1117"/>
      <point x="16" y="1046" type="curve" smooth="yes"/>
      <point x="16" y="975"/>
      <point x="68" y="926"/>
    </contour>
    <contour>
      <point x="586" y="926" type="curve" smooth="yes"/>
      <point x="662" y="926"/>
      <point x="712" y="976"/>
      <point x="711" y="1046" type="curve"/>
      <point x="711" y="1119"/>
      <point x="659" y="1165"/>
      <point x="586" y="1165" type="curve" smooth="yes"/>
      <point x="513" y="1165"/>
      <point x="461" y="1117"/>
      <point x="461" y="1046" type="curve" smooth="yes"/>
      <point x="461" y="975"/>
      <point x="513" y="926"/>
    </contour>
  </outline>
</glyph>
<glyph name="ordfeminine" format="1">
  <advance width="816"/>
  <unicode hex="00AA"/>
  <outline>
    <contour>
      <point x="315" y="468" type="curve" smooth="yes"/>
      <point x="408" y="468"/>
      <point x="471" y="493"/>
      <point x="530" y="541" type="curve"/>
      <point x="540" y="486" type="line"/>
      <point x="801" y="486" type="line"/>
      <point x="801" y="609" type="line"/>
      <point x="697" y="609" type="line"/>
      <point x="697" y="927" type="line" smooth="yes"/>
      <point x="697" y="1095"/>
      <point x="562" y="1174"/>
      <point x="393" y="1174" type="curve" smooth="yes"/>
      <point x="298" y="1174"/>
      <point x="178" y="1147"/>
      <point x="99" y="1091" type="curve"/>
      <point x="152" y="978" type="line"/>
      <point x="231" y="1023"/>
      <point x="326" y="1043"/>
      <point x="381" y="1043" type="curve" smooth="yes"/>
      <point x="467" y="1043"/>
      <point x="517" y="1000"/>
      <point x="517" y="916" type="curve" smooth="yes"/>
      <point x="517" y="867" type="line"/>
      <point x="466" y="877"/>
      <point x="418" y="883"/>
      <point x="368" y="883" type="curve" smooth="yes"/>
      <point x="214" y="883"/>
      <point x="79" y="825"/>
      <point x="79" y="670" type="curve" smooth="yes"/>
      <point x="79" y="555"/>
      <point x="174" y="468"/>
    </contour>
    <contour>
      <point x="349" y="583" type="curve" smooth="yes"/>
      <point x="288" y="583"/>
      <point x="250" y="621"/>
      <point x="250" y="677" type="curve" smooth="yes"/>
      <point x="250" y="762"/>
      <point x="318" y="783"/>
      <point x="385" y="783" type="curve" smooth="yes"/>
      <point x="447" y="783"/>
      <point x="489" y="775"/>
      <point x="517" y="766" type="curve"/>
      <point x="517" y="646" type="line"/>
      <point x="468" y="606"/>
      <point x="406" y="583"/>
    </contour>
  </outline>
</glyph>
<glyph name="softhyphen" format="1">
  <advance width="633"/>
  <unicode hex="00AD"/>
  <outline>
    <contour>
      <point x="70" y="365" type="line"/>
      <point x="563" y="365" type="line"/>
      <point x="563" y="522" type="line"/>
      <point x="70" y="522" type="line"/>
    </contour>
  </outline>
</glyph>
<glyph name="threequarters" format="1">
  <advance width="2263"/>
  <unicode hex="00BE"/>
  <outline>
    <contour>
      <point x="426" y="709" type="line"/>
      <point x="589.578" y="709"/>
      <point x="658.172" y="672.85"/>
      <point x="658.172" y="576.65" type="curve" smooth="yes"/>
      <point x="658.172" y="494.99"/>
      <point x="593.234" y="445"/>
      <point x="500" y="445" type="curve" smooth="yes"/>
      <point x="409" y="445"/>
      <point x="342" y="488"/>
      <point x="310" y="574" type="curve"/>
      <point x="188" y="510" type="line"/>
      <point x="223" y="397"/>
      <point x="345" y="324"/>
      <point x="499" y="324" type="curve" smooth="yes"/>
      <point x="700" y="324"/>
      <point x="818" y="429"/>
      <point x="818" y="584" type="curve" smooth="yes"/>
      <point x="818" y="683"/>
      <point x="752" y="747"/>
      <point x="641" y="774" type="curve"/>
      <point x="730" y="800"/>
      <point x="784" y="866"/>
      <point x="784" y="954" type="curve" smooth="yes"/>
      <point x="784" y="1076"/>
      <point x="678" y="1174"/>
      <point x="492" y="1174" type="curve" smooth="yes"/>
      <point x="358" y="1174"/>
      <point x="231" y="1109"/>
      <point x="186" y="997" type="curve"/>
      <point x="310" y="940" type="line"/>
      <point x="335" y="1009"/>
      <point x="398" y="1053"/>
      <point x="487" y="1053" type="curve" smooth="yes"/>
      <point x="571" y="1053"/>
      <point x="629" y="1008"/>
      <point x="629" y="948" type="curve" smooth="yes"/>
      <point x="629" y="870"/>
      <point x="583" y="822"/>
      <point x="426" y="822" type="curve"/>
    </contour>
    <contour>
      <point x="1600" y="0" type="line"/>
      <point x="1962" y="0" type="line"/>
      <point x="1962" y="108" type="line"/>
      <point x="1862" y="108" type="line"/>
      <point x="1862" y="243" type="line"/>
      <point x="1986" y="243" type="line"/>
      <point x="1986" y="345" type="line"/>
      <point x="1862" y="345" type="line"/>
      <point x="1862" y="818" type="line"/>
      <point x="1716" y="818" type="line"/>
      <point x="1366" y="359" type="line"/>
      <point x="1380" y="243" type="line"/>
      <point x="1716" y="243" type="line"/>
      <point x="1716" y="108" type="line"/>
      <point x="1600" y="108" type="line"/>
    </contour>
    <contour>
      <point x="692" y="-56" type="line"/>
      <point x="828" y="-56" type="line"/>
      <point x="1645" y="1246" type="line"/>
      <point x="1513" y="1246" type="line"/>
    </contour>
    <contour>
      <point x="1488" y="345" type="line"/>
      <point x="1716" y="649" type="line"/>
      <point x="1716" y="345" type="line"/>
    </contour>
  </outline>
</glyph>
<glyph name="thorn" format="1">
  <advance width="1145"/>
  <unicode hex="00FE"/>
  <outline>
    <contour>
      <point x="668" y="0" type="curve" smooth="yes"/>
      <point x="874" y="0"/>
      <point x="1079" y="155"/>
      <point x="1079" y="437" type="curve" smooth="yes"/>
      <point x="1079" y="701"/>
      <point x="903" y="846"/>
      <point x="695" y="846" type="curve" smooth="yes"/>
      <point x="565" y="846"/>
      <point x="429" y="784"/>
      <point x="324" y="667" type="curve"/>
      <point x="340" y="539" type="line"/>
      <point x="432" y="639"/>
      <point x="531" y="686"/>
      <point x="621" y="686" type="curve" smooth="yes"/>
      <point x="755" y="686"/>
      <point x="850" y="586"/>
      <point x="850" y="423" type="curve" smooth="yes"/>
      <point x="850" y="242"/>
      <point x="740" y="154"/>
      <point x="610" y="154" type="curve" smooth="yes"/>
      <point x="522" y="154"/>
      <point x="422" y="196"/>
      <point x="339" y="292" type="curve"/>
      <point x="329" y="190" type="line"/>
      <point x="412" y="61"/>
      <point x="539" y="0"/>
    </contour>
    <contour>
      <point x="34" y="-342" type="line"/>
      <point x="396" y="-342" type="line"/>
      <point x="396" y="1152" type="line"/>
      <point x="28" y="1152" type="line"/>
      <point x="28" y="1001" type="line"/>
      <point x="177" y="1001" type="line"/>
      <point x="177" y="-189" type="line"/>
      <point x="34" y="-189" type="line"/>
    </contour>
  </outline>
</glyph>
<glyph name="dotlessi" format="1">
  <advance width="683"/>
  <unicode hex="0131"/>
  <outline>
    <contour>
      <point x="351" y="804" type="move" name="top"/>
    </contour>
    <contour>
      <point x="136" y="0" type="line"/>
      <point x="620" y="0" type="line"/>
      <point x="620" y="151" type="line"/>
      <point x="494" y="151" type="line"/>
      <point x="494" y="804" type="line"/>
      <point x="138" y="804" type="line"/>
      <point x="138" y="653" type="line"/>
      <point x="277" y="653" type="line"/>
      <point x="277" y="151" type="line"/>
      <point x="136" y="151" type="line"/>
    </contour>
  </outline>
</glyph>
<glyph name="kcommaaccent" format="1">
  <advance width="1073"/>
  <unicode hex="0137"/>
  <outline>
    <component base="k"/>
    <contour>
      <point x="445" y="-550" type="line"/>
      <point x="618" y="-550"/>
      <point x="708" y="-473"/>
      <point x="707" y="-331" type="curve"/>
      <point x="707" y="-99" type="line"/>
      <point x="445" y="-99" type="line"/>
      <point x="445" y="-321" type="line"/>
      <point x="580" y="-321" type="line"/>
      <point x="580" y="-401"/>
      <point x="535" y="-435"/>
      <point x="445" y="-450" type="curve"/>
    </contour>
  </outline>
</glyph>
<glyph name="lcommaaccent" format="1">
  <advance width="586"/>
  <unicode hex="013C"/>
  <outline>
    <component base="l"/>
    <contour>
      <point x="179" y="-550" type="line"/>
      <point x="352" y="-550"/>
      <point x="442" y="-473"/>
      <point x="441" y="-331" type="curve"/>
      <point x="441" y="-99" type="line"/>
      <point x="179" y="-99" type="line"/>
      <point x="179" y="-321" type="line"/>
      <point x="314" y="-321" type="line"/>
      <point x="314" y="-401"/>
      <point x="269" y="-435"/>
      <point x="179" y="-450" type="curve"/>
    </contour>
  </outline>
</glyph>
<glyph name="Lslash" format="1">
  <advance width="1206"/>
  <unicode hex="0141"/>
  <outline>
    <component base="L"/>
    <contour>
      <point x="114" y="391" type="line"/>
      <point x="705" y="688" type="line"/>
      <point x="705" y="828" type="line"/>
      <point x="114" y="524" type="line"/>
    </contour>
  </outline>
</glyph>
<glyph name="oe" format="1">
  <advance width="1677"/>
  <unicode hex="0153"/>
  <outline>
    <contour>
      <point x="518" y="-22" type="curve" smooth="yes"/>
      <point x="667" y="-22"/>
      <point x="780" y="43"/>
      <point x="850" y="136" type="curve"/>
      <point x="921" y="42"/>
      <point x="1040" y="-22"/>
      <point x="1200" y="-22" type="curve" smooth="yes"/>
      <point x="1360" y="-22"/>
      <point x="1488" y="31"/>
      <point x="1563" y="121" type="curve"/>
      <point x="1463" y="231" type="line"/>
      <point x="1396" y="169"/>
      <point x="1301" y="133"/>
      <point x="1213" y="133" type="curve" smooth="yes"/>
      <point x="1055" y="133"/>
      <point x="969" y="225"/>
      <point x="960" y="360" type="curve"/>
      <point x="1575" y="360" type="line"/>
      <point x="1575" y="624"/>
      <point x="1451" y="826"/>
      <point x="1185" y="826" type="curve" smooth="yes"/>
      <point x="1043" y="826"/>
      <point x="927" y="765"/>
      <point x="852" y="663" type="curve"/>
      <point x="779" y="766"/>
      <point x="660" y="826"/>
      <point x="521" y="826" type="curve" smooth="yes"/>
      <point x="263" y="826"/>
      <point x="84" y="649"/>
      <point x="84" y="402" type="curve" smooth="yes"/>
      <point x="84" y="156"/>
      <point x="256" y="-22"/>
    </contour>
    <contour>
      <point x="520" y="136" type="curve" smooth="yes"/>
      <point x="384" y="136"/>
      <point x="299" y="244"/>
      <point x="299" y="402" type="curve" smooth="yes"/>
      <point x="299" y="556"/>
      <point x="382" y="664"/>
      <point x="520" y="664" type="curve" smooth="yes"/>
      <point x="657" y="664"/>
      <point x="741" y="556"/>
      <point x="741" y="402" type="curve" smooth="yes"/>
      <point x="741" y="244"/>
      <point x="656" y="136"/>
    </contour>
    <contour>
      <point x="963" y="478" type="line"/>
      <point x="983" y="599"/>
      <point x="1056" y="677"/>
      <point x="1187" y="677" type="curve" smooth="yes"/>
      <point x="1310" y="677"/>
      <point x="1365" y="594"/>
      <point x="1379" y="478" type="curve"/>
    </contour>
  </outline>
</glyph>
<glyph name="uni021A" format="1">
  <advance width="1178"/>
  <unicode hex="021A"/>
  <outline>
    <component base="T"/>
    <contour>
      <point x="475" y="-550" type="line"/>
      <point x="648" y="-550"/>
      <point x="738" y="-473"/>
      <point x="737" y="-331" type="curve"/>
      <point x="737" y="-99" type="line"/>
      <point x="475" y="-99" type="line"/>
      <point x="475" y="-321" type="line"/>
      <point x="610" y="-321" type="line"/>
      <point x="610" y="-401"/>
      <point x="565" y="-435"/>
      <point x="475" y="-450" type="curve"/>
    </contour>
  </outline>
</glyph>
<glyph name="caron" format="1">
  <advance width="636"/>
  <unicode hex="02C7"/>
  <outline>
    <contour>
      <point x="316" y="804" type="move" name="_top"/>
    </contour>
    <contour>
      <point x="208" y="915" type="line"/>
      <point x="430" y="915" type="line"/>
      <point x="586" y="1233" type="line"/>
      <point x="438" y="1233" type="line"/>
      <point x="320" y="1025" type="line"/>
      <point x="196" y="1233" type="line"/>
      <point x="46" y="1233" type="line"/>
    </contour>
  </outline>
</glyph>
<glyph name="commaturnedabovecomb" format="1">
  <advance width="600"/>
  <unicode hex="0312"/>
  <outline>
    <contour>
      <point x="171" y="804" type="move" name="_top"/>
    </contour>
    <contour>
      <point x="92" y="907" type="curve"/>
      <point x="352" y="907" type="line"/>
      <point x="352" y="1145" type="line"/>
      <point x="206" y="1145" type="line"/>
      <point x="206" y="1229"/>
      <point x="260" y="1263"/>
      <point x="351" y="1279" type="curve"/>
      <point x="351" y="1370" type="line"/>
      <point x="175.017" y="1369.01"/>
      <point x="88.9914" y="1297.83"/>
      <point x="88.9914" y="1139.75" type="curve" smooth="yes"/>
      <point x="88.9914" y="1123.82"/>
      <point x="89.7077" y="919.608"/>
    </contour>
  </outline>
</glyph>
<glyph name="quoteleft" format="1">
  <advance width="539"/>
  <unicode hex="2018"/>
  <outline>
    <contour>
      <point x="141" y="759" type="line"/>
      <point x="362" y="759" type="line"/>
      <point x="362" y="986" type="line"/>
      <point x="259" y="986" type="line"/>
      <point x="260" y="1079"/>
      <point x="286" y="1110"/>
      <point x="359" y="1122" type="curve"/>
      <point x="359" y="1224" type="line"/>
      <point x="193" y="1223"/>
      <point x="141" y="1124"/>
      <point x="141" y="982" type="curve" smooth="yes"/>
    </contour>
  </outline>
</glyph>
<glyph name="product" format="1">
  <advance width="1493"/>
  <unicode hex="220F"/>
  <outline>
    <contour>
      <point x="108" y="0" type="line"/>
      <point x="659" y="0" type="line"/>
      <point x="659" y="152" type="line"/>
      <point x="505" y="152" type="line"/>
      <point x="505" y="1001" type="line"/>
      <point x="988" y="1001" type="line"/>
      <point x="988" y="152" type="line"/>
      <point x="834" y="152" type="line"/>
      <point x="834" y="0" type="line"/>
      <point x="1385" y="0" type="line"/>
      <point x="1385" y="152" type="line"/>
      <point x="1233" y="152" type="line"/>
      <point x="1233" y="1001" type="line"/>
      <point x="1385" y="1001" type="line"/>
      <point x="1385" y="1152" type="line"/>
      <point x="108" y="1152" type="line"/>
      <point x="108" y="1001" type="line"/>
      <point x="260" y="1001" type="line"/>
      <point x="260" y="152" type="line"/>
      <point x="108" y="152" type="line"/>
    </contour>
  </outline>
</glyph>
<glyph name="minus" format="1">
  <advance width="928"/>
  <unicode hex="2212"/>
  <outline>
    <contour>
      <point x="88" y="422" type="line"/>
      <point x="841" y="422" type="line"/>
      <point x="841" y="574" type="line"/>
      <point x="88" y="574" type="line"/>
    </contour>
  </outline>
</glyph>
